#define 8_width 25
#define 8_height 42
static char 8_bits[] = {
  0x00, 0x00, 0x00, 0x00, 0x00, 0x00, 0x00, 0x00, 0x00, 0x00, 0x00, 0x00, 
  0x00, 0x00, 0x00, 0x00, 0x00, 0x00, 0x00, 0x00, 0x00, 0x00, 0x00, 0x00, 
  0xC0, 0x01, 0x00, 0x00, 0xFE, 0x03, 0x00, 0x00, 0xFF, 0x5F, 0x00, 0x00, 
  0xFF, 0xFF, 0x01, 0x00, 0xFE, 0xFF, 0x03, 0x00, 0x82, 0xFF, 0x03, 0x00, 
  0x00, 0xE0, 0x07, 0x00, 0x00, 0x80, 0x03, 0x00, 0x00, 0xC0, 0x03, 0x00, 
  0x00, 0xE0, 0x03, 0x00, 0x00, 0xF0, 0x01, 0x00, 0x00, 0xF8, 0x00, 0x00, 
  0x00, 0x7C, 0x00, 0x00, 0x00, 0x7E, 0x00, 0x00, 0x00, 0x3E, 0x00, 0x00, 
  0x00, 0xFF, 0x01, 0x00, 0x00, 0xFE, 0x0F, 0x00, 0x00, 0xE0, 0x3F, 0x00, 
  0x00, 0x00, 0x7F, 0x00, 0x00, 0x00, 0xFC, 0x00, 0x00, 0x00, 0xF0, 0x00, 
  0x00, 0x00, 0xE0, 0x00, 0x00, 0x00, 0xF0, 0x00, 0x00, 0x00, 0x70, 0x00, 
  0x00, 0x00, 0x00, 0x00, 0x00, 0x00, 0x00, 0x00, 0x00, 0x00, 0x00, 0x00, 
  0x00, 0x00, 0x00, 0x00, 0x00, 0x00, 0x00, 0x00, 0x00, 0x00, 0x00, 0x00, 
  0x00, 0x00, 0x00, 0x00, 0x00, 0x00, 0x00, 0x00, 0x00, 0x00, 0x00, 0x00, 
  0x00, 0x00, 0x00, 0x00, 0x00, 0x00, 0x00, 0x00, 0x00, 0x00, 0x00, 0x00, 
  };
