#define 10_width 25
#define 10_height 42
static char 10_bits[] = {
  0x00, 0x00, 0x00, 0x00, 0x00, 0x00, 0x00, 0x00, 0x00, 0x00, 0x00, 0x00, 
  0x00, 0x00, 0x00, 0x00, 0x00, 0x00, 0x00, 0x00, 0x00, 0x00, 0x00, 0x00, 
  0x00, 0x00, 0x00, 0x00, 0x00, 0xFD, 0x00, 0x00, 0xC0, 0xFF, 0x00, 0x00, 
  0xE0, 0xFF, 0x01, 0x00, 0xFC, 0xEB, 0x01, 0x00, 0x7E, 0xC0, 0x01, 0x00, 
  0x0F, 0xC0, 0x01, 0x00, 0x06, 0xC0, 0x01, 0x00, 0x00, 0xE0, 0x00, 0x00, 
  0x00, 0xE0, 0x00, 0x00, 0x00, 0xE0, 0x00, 0x00, 0x00, 0xF0, 0x00, 0x00, 
  0x00, 0x78, 0x00, 0x00, 0x00, 0x38, 0x00, 0x00, 0x00, 0x3C, 0x00, 0x00, 
  0x00, 0x1C, 0x00, 0x00, 0x00, 0x0E, 0x00, 0x00, 0x00, 0x0E, 0x00, 0x00, 
  0x00, 0x07, 0x00, 0x00, 0x80, 0x07, 0xC0, 0x00, 0x80, 0x03, 0x70, 0x00, 
  0xC0, 0x01, 0x38, 0x00, 0xE0, 0x01, 0x1E, 0x00, 0xE0, 0x00, 0x07, 0x00, 
  0xF0, 0xE0, 0x03, 0x00, 0x70, 0xF0, 0x01, 0x00, 0x70, 0x7E, 0x00, 0x00, 
  0xF8, 0x1F, 0x00, 0x00, 0xF8, 0x07, 0x00, 0x00, 0x30, 0x00, 0x00, 0x00, 
  0x00, 0x00, 0x00, 0x00, 0x00, 0x00, 0x00, 0x00, 0x00, 0x00, 0x00, 0x00, 
  0x00, 0x00, 0x00, 0x00, 0x00, 0x00, 0x00, 0x00, 0x00, 0x00, 0x00, 0x00, 
  };
