#define 9_width 25
#define 9_height 42
static char 9_bits[] = {
  0x00, 0x00, 0x00, 0x00, 0x00, 0x00, 0x00, 0x00, 0x00, 0x00, 0x00, 0x00, 
  0x00, 0x00, 0x00, 0x00, 0x00, 0x00, 0x00, 0x00, 0x00, 0x00, 0x00, 0x00, 
  0x00, 0x70, 0x00, 0x00, 0x00, 0xFC, 0x01, 0x00, 0x00, 0xDF, 0x03, 0x00, 
  0x80, 0x0F, 0x01, 0x00, 0x80, 0x07, 0x00, 0x00, 0xC0, 0x01, 0x00, 0x00, 
  0xE0, 0x01, 0x00, 0x00, 0xF0, 0x00, 0x00, 0x00, 0x70, 0x00, 0x00, 0x00, 
  0x70, 0x00, 0x00, 0x00, 0x38, 0x00, 0x00, 0x00, 0x38, 0x00, 0x00, 0x00, 
  0x38, 0x00, 0x00, 0x00, 0x1C, 0x00, 0x00, 0x00, 0x1C, 0x00, 0x00, 0x00, 
  0x1C, 0x00, 0x00, 0x00, 0x1C, 0x00, 0x00, 0x00, 0x1C, 0x00, 0x00, 0x00, 
  0x1E, 0x00, 0x00, 0x00, 0x1C, 0x00, 0x10, 0x00, 0x1E, 0x00, 0x3E, 0x00, 
  0x3E, 0x00, 0x78, 0x00, 0x7E, 0x00, 0xF0, 0x00, 0x7C, 0x00, 0xF0, 0x00, 
  0xFC, 0x00, 0x7C, 0x00, 0xF8, 0x07, 0x7F, 0x00, 0xF0, 0xFF, 0x3F, 0x00, 
  0xE0, 0xFF, 0x0F, 0x00, 0x80, 0xFF, 0x07, 0x00, 0x00, 0xFC, 0x00, 0x00, 
  0x00, 0x00, 0x00, 0x00, 0x00, 0x00, 0x00, 0x00, 0x00, 0x00, 0x00, 0x00, 
  0x00, 0x00, 0x00, 0x00, 0x00, 0x00, 0x00, 0x00, 0x00, 0x00, 0x00, 0x00, 
  };
