#define time_width 128
#define time_height 64
static char time_bits[] = {
  0x00, 0x00, 0x00, 0x00, 0x00, 0x00, 0x00, 0x00, 0x00, 0x00, 0x00, 0x00, 
  0x00, 0x00, 0x00, 0x00, 0x00, 0x00, 0x00, 0x00, 0x00, 0x00, 0x00, 0x00, 
  0x00, 0x00, 0x00, 0x00, 0x00, 0x00, 0x00, 0x00, 0x00, 0x00, 0x00, 0x00, 
  0x00, 0x00, 0x00, 0x00, 0x00, 0x00, 0x00, 0x00, 0x00, 0x00, 0x00, 0x00, 
  0x00, 0x00, 0x00, 0x00, 0x00, 0x00, 0x00, 0x00, 0x00, 0x00, 0x00, 0x00, 
  0x00, 0x00, 0x00, 0x00, 0x00, 0x00, 0x00, 0x00, 0x00, 0x00, 0x00, 0x00, 
  0x00, 0x00, 0x00, 0x00, 0x00, 0x00, 0x00, 0x00, 0x00, 0x00, 0x00, 0x00, 
  0x00, 0x00, 0x00, 0x00, 0x00, 0x00, 0x00, 0x00, 0x00, 0x00, 0x00, 0x00, 
  0x00, 0x00, 0x00, 0x00, 0x00, 0x00, 0x00, 0x00, 0x00, 0x00, 0x00, 0x00, 
  0x00, 0x00, 0x00, 0x00, 0x00, 0x00, 0x00, 0x00, 0x00, 0x00, 0x00, 0x00, 
  0x00, 0x00, 0x00, 0x00, 0x00, 0x00, 0x00, 0x00, 0x00, 0x00, 0x00, 0x00, 
  0x00, 0x00, 0x00, 0x00, 0x00, 0x00, 0x00, 0x00, 0x00, 0x00, 0x00, 0x00, 
  0x00, 0x00, 0x00, 0x00, 0x00, 0x00, 0x00, 0x00, 0x00, 0x00, 0xFF, 0x00, 
  0x00, 0x00, 0x00, 0x00, 0x00, 0x00, 0x00, 0x00, 0x00, 0x00, 0x00, 0x00, 
  0x00, 0xE0, 0xFF, 0x01, 0x00, 0x00, 0x00, 0x00, 0x00, 0x00, 0x00, 0x00, 
  0x00, 0x00, 0x00, 0x00, 0x00, 0xF8, 0xFF, 0x01, 0x00, 0x00, 0x00, 0x00, 
  0x00, 0x00, 0x00, 0x80, 0x01, 0x00, 0x00, 0x00, 0x00, 0xFE, 0xFF, 0x01, 
  0x00, 0x38, 0x00, 0x00, 0x00, 0x00, 0x00, 0xF0, 0x07, 0x00, 0x00, 0x00, 
  0xC0, 0xFF, 0xFB, 0x03, 0x00, 0x7E, 0x00, 0x00, 0x00, 0x00, 0x00, 0xFC, 
  0x0F, 0x00, 0x00, 0x00, 0xE0, 0xBF, 0xC0, 0x03, 0x00, 0xFF, 0x01, 0x00, 
  0x00, 0x01, 0x00, 0xFE, 0x0F, 0x00, 0x80, 0x01, 0xF0, 0x01, 0xC0, 0x01, 
  0x00, 0xFF, 0x07, 0x00, 0x80, 0x03, 0x00, 0x3F, 0x1E, 0x00, 0xC0, 0x03, 
  0xF0, 0x01, 0xC0, 0x01, 0x80, 0xFF, 0x1F, 0x00, 0xC0, 0x03, 0x00, 0x1F, 
  0x00, 0x00, 0xF0, 0x0F, 0xF0, 0x00, 0xE0, 0x01, 0xC0, 0xDB, 0x3F, 0x00, 
  0xC0, 0x03, 0x80, 0x0F, 0x00, 0x00, 0xF8, 0x3F, 0x00, 0x00, 0xE0, 0x01, 
  0xC0, 0x87, 0x3E, 0x00, 0xC0, 0x03, 0xC0, 0x07, 0x00, 0x00, 0x7C, 0x3F, 
  0x00, 0x00, 0xE0, 0x01, 0xE0, 0x0D, 0x38, 0x00, 0xC0, 0x03, 0xC0, 0x03, 
  0x00, 0x00, 0x3E, 0x3E, 0x00, 0x00, 0xF0, 0x00, 0xE0, 0x0D, 0x38, 0x00, 
  0xC0, 0x03, 0xE0, 0x03, 0x00, 0x00, 0xFE, 0x1E, 0x00, 0x00, 0xF0, 0x00, 
  0xE0, 0x05, 0x3C, 0x00, 0xC0, 0x07, 0xE0, 0x01, 0x00, 0x00, 0xFE, 0x0F, 
  0x00, 0x00, 0xF8, 0x00, 0xE0, 0x05, 0x3C, 0x00, 0xC0, 0x03, 0xE0, 0x01, 
  0x00, 0x00, 0xFC, 0x07, 0x00, 0x00, 0xF8, 0x00, 0xE0, 0x05, 0x1F, 0x00, 
  0xC0, 0x03, 0xF0, 0x00, 0x00, 0x00, 0xF8, 0x01, 0x00, 0x00, 0x7C, 0x00, 
  0x80, 0xCF, 0x1F, 0x00, 0xC0, 0x03, 0xF0, 0x00, 0x00, 0x00, 0x00, 0x00, 
  0x00, 0x00, 0x3C, 0x00, 0x80, 0xFF, 0x0F, 0x00, 0xE0, 0x03, 0x70, 0x00, 
  0x00, 0x00, 0x00, 0x00, 0x00, 0x00, 0x1E, 0x00, 0x80, 0xFF, 0x7F, 0x00, 
  0xC0, 0x07, 0x78, 0x00, 0x00, 0x00, 0x00, 0x00, 0x00, 0x00, 0x1E, 0x00, 
  0x00, 0xFF, 0xFF, 0x01, 0xC0, 0x03, 0x78, 0x00, 0x00, 0x00, 0x00, 0x00, 
  0x00, 0x00, 0x0F, 0x00, 0x00, 0x7F, 0xFC, 0x03, 0xC0, 0x03, 0x78, 0x00, 
  0x00, 0x00, 0x00, 0x00, 0x00, 0x80, 0x0F, 0x00, 0x00, 0x1F, 0xE0, 0x07, 
  0xC0, 0x03, 0x78, 0x00, 0x00, 0x00, 0x00, 0x00, 0x00, 0x80, 0x07, 0x00, 
  0x00, 0x0F, 0x80, 0x07, 0xC0, 0x03, 0x38, 0xC8, 0x03, 0x00, 0x00, 0x00, 
  0x00, 0x80, 0x07, 0x00, 0x00, 0x0F, 0x00, 0x0F, 0xC0, 0x03, 0x78, 0xF8, 
  0x1F, 0x00, 0x00, 0x00, 0x00, 0xC0, 0x03, 0x00, 0x00, 0x0F, 0x00, 0x0E, 
  0xC0, 0x03, 0x38, 0xFE, 0x7F, 0x00, 0x00, 0x00, 0x00, 0xE0, 0x03, 0x00, 
  0x06, 0x0F, 0x00, 0x0E, 0xC0, 0x03, 0x3C, 0x7F, 0xFF, 0x00, 0x00, 0x00, 
  0x00, 0xF0, 0x01, 0x80, 0x03, 0x0F, 0x00, 0x06, 0xC0, 0x03, 0xBC, 0x07, 
  0xF8, 0x01, 0x80, 0x19, 0x00, 0xF0, 0x00, 0xE0, 0x03, 0x1E, 0x00, 0x0F, 
  0xC0, 0x03, 0xFC, 0x03, 0xE0, 0x03, 0xE0, 0x00, 0x00, 0x78, 0x00, 0xF0, 
  0x00, 0x1E, 0x00, 0x0F, 0xC0, 0x03, 0xF8, 0x01, 0xC0, 0x03, 0xF0, 0x00, 
  0x00, 0x3C, 0x00, 0x7C, 0x00, 0x1E, 0x80, 0x07, 0xC0, 0x03, 0xF8, 0x01, 
  0x80, 0x07, 0xF8, 0x00, 0x00, 0x3C, 0x00, 0x3E, 0x00, 0x3C, 0xE0, 0x07, 
  0xC0, 0x03, 0xF8, 0x01, 0xC0, 0x07, 0xF8, 0x07, 0x00, 0x3E, 0x80, 0x0F, 
  0x00, 0x38, 0xF0, 0x03, 0xC0, 0x03, 0xF0, 0x03, 0xF0, 0x03, 0xFC, 0x17, 
  0x00, 0x1E, 0xF0, 0x0F, 0x00, 0xF8, 0xFD, 0x01, 0xC0, 0x03, 0xF0, 0x3F, 
  0xFF, 0x03, 0xFC, 0x19, 0x00, 0x1F, 0xF8, 0x03, 0x00, 0xF0, 0xFF, 0x00, 
  0xC0, 0x03, 0xE0, 0xFF, 0xFF, 0x00, 0xFC, 0x1D, 0x00, 0x0F, 0xFF, 0x00, 
  0x00, 0xF0, 0x7F, 0x00, 0x80, 0x01, 0x80, 0xFF, 0x3F, 0x00, 0xF8, 0x07, 
  0x00, 0xEF, 0x7F, 0x00, 0x00, 0x80, 0x1F, 0x00, 0x80, 0x01, 0x00, 0xFE, 
  0x1F, 0x00, 0x60, 0x03, 0x80, 0xFF, 0x0F, 0x00, 0x00, 0x00, 0x00, 0x00, 
  0x00, 0x00, 0x00, 0xE0, 0x03, 0x00, 0x00, 0x00, 0x80, 0xFF, 0x03, 0x00, 
  0x00, 0x00, 0x00, 0x00, 0x80, 0x00, 0x00, 0x00, 0x00, 0x00, 0x00, 0x00, 
  0x80, 0xFF, 0x00, 0x00, 0x00, 0x00, 0x00, 0x00, 0x00, 0x00, 0x00, 0x00, 
  0x00, 0x00, 0x00, 0x00, 0x00, 0x03, 0x00, 0x00, 0x00, 0x00, 0x00, 0x00, 
  0x00, 0x00, 0x00, 0x00, 0x00, 0x00, 0x00, 0x00, 0x00, 0x00, 0x00, 0x00, 
  0x00, 0x00, 0x00, 0x00, 0x00, 0x00, 0x00, 0x00, 0x00, 0x00, 0x00, 0x00, 
  0x00, 0x00, 0x00, 0x00, 0x00, 0x00, 0x00, 0x00, 0x00, 0x00, 0x00, 0x00, 
  0x00, 0x00, 0x00, 0x00, 0x00, 0x00, 0x00, 0x00, 0x00, 0x00, 0x00, 0x00, 
  0x00, 0x00, 0x00, 0x00, 0x00, 0x00, 0x00, 0x00, 0x00, 0x00, 0x00, 0x00, 
  0x00, 0x00, 0x00, 0x00, 0x00, 0x00, 0x00, 0x00, 0x00, 0x00, 0x00, 0x00, 
  0x00, 0x00, 0x00, 0x00, 0x00, 0x00, 0x00, 0x00, 0x00, 0x00, 0x00, 0x00, 
  0x00, 0x00, 0x00, 0x00, 0x00, 0x00, 0x00, 0x00, 0x00, 0x00, 0x00, 0x00, 
  0x00, 0x00, 0x00, 0x00, 0x00, 0x00, 0x00, 0x00, 0x00, 0x00, 0x00, 0x00, 
  0x00, 0x00, 0x00, 0x00, 0x00, 0x00, 0x00, 0x00, 0x00, 0x00, 0x00, 0x00, 
  0x00, 0x00, 0x00, 0x00, 0x00, 0x00, 0x00, 0x00, 0x00, 0x00, 0x00, 0x00, 
  0x00, 0x00, 0x00, 0x00, 0x00, 0x00, 0x00, 0x00, 0x00, 0x00, 0x00, 0x00, 
  0x00, 0x00, 0x00, 0x00, 0x00, 0x00, 0x00, 0x00, 0x00, 0x00, 0x00, 0x00, 
  0x00, 0x00, 0x00, 0x00, 0x00, 0x00, 0x00, 0x00, 0x00, 0x00, 0x00, 0x00, 
  0x00, 0x00, 0x00, 0x00, 0x00, 0x00, 0x00, 0x00, 0x00, 0x00, 0x00, 0x00, 
  0x00, 0x00, 0x00, 0x00, 0x00, 0x00, 0x00, 0x00, 0x00, 0x00, 0x00, 0x00, 
  0x00, 0x00, 0x00, 0x00, 0x00, 0x00, 0x00, 0x00, 0x00, 0x00, 0x00, 0x00, 
  0x00, 0x00, 0x00, 0x00, 0x00, 0x00, 0x00, 0x00, 0x00, 0x00, 0x00, 0x00, 
  0x00, 0x00, 0x00, 0x00, 0x00, 0x00, 0x00, 0x00, 0x00, 0x00, 0x00, 0x00, 
  0x00, 0x00, 0x00, 0x00, 0x00, 0x00, 0x00, 0x00, 0x00, 0x00, 0x00, 0x00, 
  0x00, 0x00, 0x00, 0x00, 0x00, 0x00, 0x00, 0x00, 0x00, 0x00, 0x00, 0x00, 
  0x00, 0x00, 0x00, 0x00, };
