#define maohao_width 25
#define maohao_height 42
static char maohao_bits[] = {
  0x00, 0x00, 0x00, 0x00, 0x00, 0x00, 0x00, 0x00, 0x00, 0x00, 0x00, 0x00, 
  0x00, 0x00, 0x00, 0x00, 0x00, 0x20, 0x00, 0x00, 0x00, 0xFC, 0x00, 0x00, 
  0x00, 0xFE, 0x01, 0x00, 0x00, 0xFF, 0x07, 0x00, 0x80, 0xEF, 0x07, 0x00, 
  0xC0, 0xC7, 0x07, 0x00, 0xC0, 0x9F, 0x03, 0x00, 0xC0, 0xFF, 0x01, 0x00, 
  0x80, 0xFF, 0x00, 0x00, 0x00, 0x3F, 0x00, 0x00, 0x00, 0x00, 0x00, 0x00, 
  0x00, 0x00, 0x00, 0x00, 0x00, 0x00, 0x00, 0x00, 0x00, 0x00, 0x00, 0x00, 
  0x00, 0x00, 0x00, 0x00, 0x00, 0x00, 0x00, 0x00, 0x00, 0x00, 0x00, 0x00, 
  0x00, 0x00, 0x00, 0x00, 0x00, 0x00, 0x00, 0x00, 0x00, 0x00, 0x00, 0x00, 
  0x00, 0xB0, 0x01, 0x00, 0x00, 0x1C, 0x00, 0x00, 0x00, 0x1E, 0x00, 0x00, 
  0x00, 0x1F, 0x00, 0x00, 0x00, 0xFF, 0x00, 0x00, 0x80, 0xFF, 0x02, 0x00, 
  0x80, 0x3F, 0x03, 0x00, 0x80, 0xBF, 0x03, 0x00, 0x00, 0xFF, 0x00, 0x00, 
  0x00, 0x6C, 0x00, 0x00, 0x00, 0x00, 0x00, 0x00, 0x00, 0x00, 0x00, 0x00, 
  0x00, 0x00, 0x00, 0x00, 0x00, 0x00, 0x00, 0x00, 0x00, 0x00, 0x00, 0x00, 
  0x00, 0x00, 0x00, 0x00, 0x00, 0x00, 0x00, 0x00, 0x00, 0x00, 0x00, 0x00, 
  };
