#define 5_width 25
#define 5_height 42
static char 5_bits[] = {
  0x00, 0x00, 0x00, 0x00, 0x00, 0x00, 0x00, 0x00, 0x00, 0x00, 0x00, 0x00, 
  0x00, 0x00, 0x00, 0x00, 0x00, 0x00, 0x00, 0x00, 0x00, 0x00, 0x00, 0x00, 
  0x80, 0x03, 0x00, 0x00, 0xE0, 0x03, 0x00, 0x00, 0xF0, 0x0F, 0x00, 0x00, 
  0xF8, 0x7F, 0x00, 0x00, 0xE8, 0xFF, 0x00, 0x00, 0x80, 0xFF, 0x00, 0x00, 
  0x00, 0xFC, 0x01, 0x00, 0x00, 0xC0, 0x01, 0x00, 0x00, 0xE0, 0x00, 0x00, 
  0x00, 0xE0, 0x01, 0x00, 0x00, 0xF0, 0x00, 0x00, 0x00, 0xFC, 0x00, 0x00, 
  0x00, 0x3F, 0x00, 0x00, 0x80, 0x0F, 0x00, 0x00, 0x80, 0x0F, 0x00, 0x00, 
  0xC0, 0x07, 0x00, 0x00, 0xE0, 0x01, 0x00, 0x00, 0xF0, 0x00, 0x00, 0x00, 
  0xF0, 0x00, 0x00, 0x00, 0x70, 0x00, 0x00, 0x00, 0xF0, 0x00, 0x00, 0x00, 
  0xF0, 0x00, 0x00, 0x00, 0x20, 0x00, 0x00, 0x00, 0x00, 0x00, 0x00, 0x00, 
  0x00, 0x00, 0x00, 0x00, 0x00, 0x00, 0x00, 0x00, 0x00, 0x00, 0x00, 0x00, 
  0x00, 0x00, 0x00, 0x00, 0x00, 0x00, 0x00, 0x00, 0x00, 0x00, 0x00, 0x00, 
  0x00, 0x00, 0x00, 0x00, 0x00, 0x00, 0x00, 0x00, 0x00, 0x00, 0x00, 0x00, 
  0x00, 0x00, 0x00, 0x00, 0x00, 0x00, 0x00, 0x00, 0x00, 0x00, 0x00, 0x00, 
  };
