#define 6_width 25
#define 6_height 42
static char 6_bits[] = {
  0x00, 0x00, 0x00, 0x00, 0x00, 0x00, 0x00, 0x00, 0x00, 0x00, 0x00, 0x00, 
  0x00, 0x00, 0x00, 0x00, 0x00, 0x00, 0x00, 0x00, 0x00, 0x00, 0x00, 0x00, 
  0x00, 0x00, 0x00, 0x00, 0x00, 0x00, 0x00, 0x00, 0xE0, 0x00, 0x00, 0x00, 
  0xF0, 0x01, 0x00, 0x00, 0xF0, 0x03, 0x08, 0x00, 0x70, 0x02, 0x08, 0x00, 
  0x38, 0x00, 0x18, 0x00, 0x38, 0x00, 0x00, 0x00, 0x38, 0x00, 0x10, 0x00, 
  0x38, 0x00, 0x10, 0x00, 0x3C, 0x00, 0x20, 0x00, 0x3C, 0x00, 0x60, 0x00, 
  0x3C, 0x00, 0x20, 0x00, 0x1C, 0x00, 0x60, 0x00, 0x1C, 0x00, 0xF8, 0x00, 
  0x1C, 0x80, 0x7F, 0x00, 0xFC, 0xFF, 0x7F, 0x00, 0xFC, 0xFF, 0x1F, 0x00, 
  0xFC, 0xFF, 0x07, 0x00, 0xF8, 0x9F, 0x03, 0x00, 0x00, 0x00, 0x00, 0x00, 
  0x00, 0x00, 0x00, 0x00, 0x00, 0x00, 0x00, 0x00, 0x00, 0x00, 0x00, 0x00, 
  0x00, 0x00, 0x00, 0x00, 0x00, 0x00, 0x00, 0x00, 0x00, 0x00, 0x00, 0x00, 
  0x00, 0x00, 0x00, 0x00, 0x00, 0x00, 0x00, 0x00, 0x00, 0x00, 0x00, 0x00, 
  0x00, 0x00, 0x00, 0x00, 0x00, 0x00, 0x00, 0x00, 0x00, 0x00, 0x00, 0x00, 
  0x00, 0x00, 0x00, 0x00, 0x00, 0x00, 0x00, 0x00, 0x00, 0x00, 0x00, 0x00, 
  };
