#define 8_width 25
#define 8_height 42
static char 8_bits[] = {
  0x00, 0x00, 0x00, 0x00, 0x00, 0x00, 0x00, 0x00, 0x00, 0x00, 0x00, 0x00, 
  0x00, 0x00, 0x00, 0x00, 0x00, 0x00, 0x00, 0x00, 0x00, 0x00, 0x00, 0x00, 
  0x00, 0x00, 0x00, 0x00, 0x00, 0x80, 0x01, 0x00, 0xE0, 0xC0, 0x03, 0x00, 
  0xF0, 0xC1, 0x07, 0x00, 0xF0, 0xC3, 0x0F, 0x00, 0x70, 0x82, 0x0F, 0x00, 
  0x38, 0xC0, 0x19, 0x00, 0x38, 0x80, 0x0B, 0x00, 0x38, 0x80, 0x13, 0x00, 
  0x38, 0x80, 0x13, 0x00, 0x3C, 0x80, 0x23, 0x00, 0x3C, 0x80, 0x23, 0x00, 
  0x1C, 0x80, 0x23, 0x00, 0x3C, 0x80, 0x67, 0x00, 0x1C, 0x00, 0xF7, 0x00, 
  0x1C, 0xC0, 0x7F, 0x00, 0xFC, 0xFF, 0x7F, 0x00, 0xFC, 0xFF, 0x1F, 0x00, 
  0xFC, 0xFF, 0x07, 0x00, 0xF8, 0xDF, 0x03, 0x00, 0x00, 0x00, 0x00, 0x00, 
  0x00, 0x00, 0x00, 0x00, 0x00, 0x00, 0x00, 0x00, 0x00, 0x00, 0x00, 0x00, 
  0x00, 0x00, 0x00, 0x00, 0x00, 0x00, 0x00, 0x00, 0x00, 0x00, 0x00, 0x00, 
  0x00, 0x00, 0x00, 0x00, 0x00, 0x00, 0x00, 0x00, 0x00, 0x00, 0x00, 0x00, 
  0x00, 0x00, 0x00, 0x00, 0x00, 0x00, 0x00, 0x00, 0x00, 0x00, 0x00, 0x00, 
  0x00, 0x00, 0x00, 0x00, 0x00, 0x00, 0x00, 0x00, 0x00, 0x00, 0x00, 0x00, 
  };
