#define 5_width 25
#define 5_height 42
static char 5_bits[] = {
  0x00, 0x00, 0x00, 0x00, 0x00, 0x00, 0x00, 0x00, 0x00, 0x00, 0x00, 0x00, 
  0x00, 0x00, 0x00, 0x00, 0x00, 0x00, 0x00, 0x00, 0x00, 0x00, 0x00, 0x00, 
  0xC0, 0x03, 0x00, 0x00, 0xE0, 0x07, 0x00, 0x00, 0xF0, 0x0F, 0x00, 0x00, 
  0x78, 0x1E, 0x00, 0x00, 0x38, 0x3C, 0x00, 0x00, 0x38, 0x78, 0x00, 0x00, 
  0x38, 0x70, 0x00, 0x00, 0x18, 0x20, 0x00, 0x00, 0x18, 0x20, 0x00, 0x00, 
  0x1C, 0x70, 0x00, 0x00, 0x3C, 0x78, 0x00, 0x00, 0x1C, 0x3C, 0x00, 0x00, 
  0xFC, 0x3F, 0x00, 0x00, 0xF8, 0x0F, 0x00, 0x00, 0xF8, 0x07, 0x00, 0x00, 
  0xF0, 0x03, 0x00, 0x00, 0xC0, 0x01, 0x00, 0x00, 0x00, 0x00, 0x00, 0x00, 
  0x00, 0x00, 0x00, 0x00, 0x00, 0x00, 0x00, 0x00, 0x00, 0x00, 0x00, 0x00, 
  0x00, 0x00, 0x00, 0x00, 0x00, 0x00, 0x00, 0x00, 0x00, 0x00, 0x00, 0x00, 
  0x00, 0x00, 0x00, 0x00, 0x00, 0x00, 0x00, 0x00, 0x00, 0x00, 0x00, 0x00, 
  0x00, 0x00, 0x00, 0x00, 0x00, 0x00, 0x00, 0x00, 0x00, 0x00, 0x00, 0x00, 
  0x00, 0x00, 0x00, 0x00, 0x00, 0x00, 0x00, 0x00, 0x00, 0x00, 0x00, 0x00, 
  0x00, 0x00, 0x00, 0x00, 0x00, 0x00, 0x00, 0x00, 0x00, 0x00, 0x00, 0x00, 
  };
