#define 6_width 25
#define 6_height 42
static char 6_bits[] = {
  0x00, 0x00, 0x00, 0x00, 0x00, 0x00, 0x00, 0x00, 0x00, 0x00, 0x00, 0x00, 
  0x00, 0x00, 0x00, 0x00, 0x00, 0x00, 0x00, 0x00, 0x00, 0x00, 0x00, 0x00, 
  0xC0, 0x01, 0x00, 0x00, 0xE0, 0x0F, 0x00, 0x00, 0xF0, 0x0F, 0x00, 0x00, 
  0x78, 0x1E, 0x00, 0x00, 0x38, 0xBC, 0x01, 0x00, 0x38, 0xF8, 0x01, 0x00, 
  0x38, 0xF0, 0x00, 0x00, 0x18, 0xE0, 0x00, 0x00, 0x18, 0xF0, 0x00, 0x00, 
  0x1C, 0x70, 0x00, 0x00, 0x3C, 0xF8, 0x00, 0x00, 0x1C, 0x7E, 0x00, 0x00, 
  0xFC, 0x3F, 0x00, 0x00, 0xF8, 0x0F, 0x00, 0x00, 0xF8, 0x07, 0x00, 0x00, 
  0xF0, 0x03, 0x00, 0x00, 0xC0, 0x01, 0x00, 0x00, 0x00, 0x00, 0x00, 0x00, 
  0x00, 0x00, 0x00, 0x00, 0x00, 0x00, 0x00, 0x00, 0x00, 0x00, 0x00, 0x00, 
  0x00, 0x00, 0x00, 0x00, 0x00, 0x00, 0x00, 0x00, 0x00, 0x00, 0x00, 0x00, 
  0x00, 0x00, 0x00, 0x00, 0x00, 0x00, 0x00, 0x00, 0x00, 0x00, 0x00, 0x00, 
  0x00, 0x00, 0x00, 0x00, 0x00, 0x00, 0x00, 0x00, 0x00, 0x00, 0x00, 0x00, 
  0x00, 0x00, 0x00, 0x00, 0x00, 0x00, 0x00, 0x00, 0x00, 0x00, 0x00, 0x00, 
  0x00, 0x00, 0x00, 0x00, 0x00, 0x00, 0x00, 0x00, 0x00, 0x00, 0x00, 0x00, 
  };
