#define 10_width 25
#define 10_height 42
static char 10_bits[] = {
  0x00, 0x00, 0x00, 0x00, 0x00, 0x00, 0x00, 0x00, 0x00, 0x00, 0x00, 0x00, 
  0x00, 0x00, 0x00, 0x00, 0x00, 0x00, 0x00, 0x00, 0x00, 0x00, 0x00, 0x00, 
  0x00, 0x00, 0x00, 0x00, 0x00, 0x00, 0x00, 0x00, 0x00, 0x38, 0x00, 0x00, 
  0x00, 0x7E, 0x00, 0x00, 0x00, 0xFE, 0x00, 0x00, 0x00, 0xF0, 0x01, 0x00, 
  0x00, 0xF8, 0x03, 0x00, 0x00, 0xFC, 0x07, 0x00, 0x00, 0x1F, 0x07, 0x00, 
  0x00, 0x0F, 0x07, 0x00, 0xC0, 0x03, 0x07, 0x00, 0xC0, 0x03, 0x0E, 0x00, 
  0xC0, 0x01, 0x0E, 0x00, 0xE0, 0x01, 0x0E, 0x00, 0xE0, 0x00, 0x0E, 0x00, 
  0xE0, 0x00, 0x0E, 0x00, 0xF0, 0x00, 0x0E, 0x00, 0xE0, 0x00, 0x0E, 0x00, 
  0xE0, 0x00, 0x06, 0x00, 0xE0, 0x00, 0x07, 0x00, 0x60, 0x00, 0x07, 0x00, 
  0xF0, 0x80, 0x07, 0x00, 0xE0, 0xC0, 0x03, 0x00, 0xE0, 0xE0, 0x03, 0x00, 
  0xE0, 0xFB, 0x01, 0x00, 0xC0, 0x7F, 0x00, 0x00, 0x80, 0x7F, 0x00, 0x00, 
  0x00, 0x0C, 0x00, 0x00, 0x00, 0x00, 0x00, 0x00, 0x00, 0x00, 0x00, 0x00, 
  0x00, 0x00, 0x00, 0x00, 0x00, 0x00, 0x00, 0x00, 0x00, 0x00, 0x00, 0x00, 
  0x00, 0x00, 0x00, 0x00, 0x00, 0x00, 0x00, 0x00, 0x00, 0x00, 0x00, 0x00, 
  };
